<svg xmlns="http://www.w3.org/2000/svg" version="1.1" xmlns:xlink="http://www.w3.org/1999/xlink" width="147.2" height="147.2"><svg xmlns="http://www.w3.org/2000/svg" id="SvgjsSvg1007" version="1.1" viewBox="73.6 74 147.2 147.2">
  <!-- Generator: Adobe Illustrator 29.3.1, SVG Export Plug-In . SVG Version: 2.1.0 Build 151)  -->
  <defs>
    <style>
      .st0 {
        fill: #fff;
      }

      .st1 {
        fill: #35b0a0;
      }
    </style>
  </defs>
  <rect class="st1" x="73.6" y="74" width="147.2" height="147.2" rx="37.6" ry="37.6"></rect>
  <polygon class="st0" points="196.6 146.8 189.1 133.8 174.2 133.8 168.2 123.4 160.7 110.4 133.7 110.4 120.2 133.8 105.2 133.8 91.7 157.2 105.2 180.6 132.2 180.6 126.2 170.2 111.2 170.2 103.7 157.2 111.2 144.2 126.2 144.2 126.6 144.9 133.7 157.2 145.7 157.2 148.7 157.2 149.2 156.4 154.7 146.9 154.7 146.9 139.7 146.9 132.2 133.8 139.7 120.8 154.7 120.8 162.2 133.8 162.2 133.9 162.2 133.9 168.2 144.2 168.2 144.2 183.1 144.2 190.6 157.2 183.1 170.2 168.2 170.2 160.7 157.2 160.7 157.2 160.7 157.2 160.6 157.2 154.7 167.6 162.2 180.6 189.1 180.6 196.6 167.7 196.6 167.7 202.6 157.2 196.6 146.8"></polygon>
</svg><style>@media (prefers-color-scheme: light) { :root { filter: none; } }
@media (prefers-color-scheme: dark) { :root { filter: none; } }
</style></svg>
