<svg xmlns="http://www.w3.org/2000/svg" id="Layer_1" version="1.1" viewBox="30 30 162.1 102.5">
  <!-- Generator: Adobe Illustrator 29.3.1, SVG Export Plug-In . SVG Version: 2.1.0 Build 151)  -->
  <path d="M80.3,79.3l.6,1,10.4,18h17.5l-8.8-15.2-11-19h-39.3l-19.7,34.2,19.7,34.2h39.4l-8.8-15.2h-21.9l-10.9-19,10.9-19h21.9Z"/>
  <path d="M183.2,83.1l-11-19h-39.3l8.7,15.1h21.9l10.9,19-10.9,19h-21.8l-10.9-19h0l-8.7,15.2,11,19h39.4l10.9-19h0c0,0,8.7-15.2,8.7-15.2l-8.8-15ZM121.9,83.1l-8,13.9,8-13.9Z"/>
  <path d="M150.4,64.2l-8.7-15.2-11-19h-39.3l-19.7,34.2h0l8.7,15.2.6,1,10.4,18h21.8l.8-1.3,8-13.9h-21.9l-10.9-19,10.9-19h21.9l10.9,19h0l8.7,15.1h.1l8.7-15.2h0ZM130.6,98.3h0Z"/>
</svg>
