<svg id="Layer_1" data-name="Layer 1" xmlns="http://www.w3.org/2000/svg" xmlns:xlink="http://www.w3.org/1999/xlink" viewBox="0 0 294.33 294.33"><defs><style>.cls-1{fill:url(#linear-gradient);}.cls-2{fill:#fff;}</style><linearGradient id="linear-gradient" x1="147.17" y1="221.21" x2="147.17" y2="74.04" gradientUnits="userSpaceOnUse"><stop offset="0" stop-color="#db3581"/><stop offset="1" stop-color="#5f4dd1"/></linearGradient></defs><rect class="cls-1" x="73.58" y="74.04" width="147.17" height="147.17" rx="37.6"/><polygon class="cls-2" points="196.63 146.85 189.13 133.84 174.16 133.84 168.18 123.45 160.68 110.45 133.71 110.45 120.24 133.84 105.23 133.84 91.74 157.25 105.23 180.64 132.2 180.64 126.21 170.24 111.22 170.24 103.73 157.24 111.22 144.24 126.21 144.24 126.59 144.9 133.71 157.25 145.69 157.25 148.68 157.25 149.19 156.36 154.7 146.86 154.66 146.86 139.71 146.86 132.21 133.85 139.71 120.85 154.7 120.85 162.16 133.84 162.18 133.87 162.2 133.9 168.16 144.24 168.24 144.24 183.14 144.24 190.63 157.25 183.14 170.24 168.16 170.24 160.67 157.25 160.66 157.24 160.66 157.23 160.65 157.25 154.66 167.63 162.16 180.64 189.14 180.64 196.62 167.66 196.65 167.71 202.63 157.25 196.63 146.85"/></svg>